<?xml version="1.0" encoding="UTF-8"?>
<svg xmlns="http://www.w3.org/2000/svg" xmlns:xlink="http://www.w3.org/1999/xlink" width="18pt" height="18pt" viewBox="0 0 18 18" version="1.1">
<g id="surface1">
<path d="M 15.890625 0 L 2.109375 0 C 0.945312 0 0 0.945312 0 2.109375 L 0 15.890625 C 0 17.054688 0.945312 18 2.109375 18 L 15.890625 18 C 17.054688 18 18 17.054688 18 15.890625 L 18 2.109375 C 18 0.945312 17.054688 0 15.890625 0 Z M 16.59375 15.890625 C 16.59375 16.277344 16.277344 16.59375 15.890625 16.59375 L 2.109375 16.59375 C 1.722656 16.59375 1.40625 16.277344 1.40625 15.890625 L 1.40625 2.109375 C 1.40625 1.722656 1.722656 1.40625 2.109375 1.40625 L 15.890625 1.40625 C 16.277344 1.40625 16.59375 1.722656 16.59375 2.109375 Z M 16.59375 15.890625 "/>
<path d="M 10.054688 3.515625 L 5.132812 3.515625 L 5.132812 14.484375 L 6.539062 14.484375 L 6.539062 10.546875 L 10.054688 10.546875 C 11.996094 10.546875 13.570312 8.972656 13.570312 7.03125 C 13.570312 5.089844 11.996094 3.515625 10.054688 3.515625 Z M 10.054688 9.140625 L 6.539062 9.140625 L 6.539062 4.921875 L 10.054688 4.921875 C 11.21875 4.921875 12.164062 5.867188 12.164062 7.03125 C 12.164062 8.195312 11.21875 9.140625 10.054688 9.140625 Z M 10.054688 9.140625 "/>
</g>
</svg>
