<svg xmlns="http://www.w3.org/2000/svg" width="15.999" height="16" viewBox="0 0 15.999 16"><defs><style>.a{fill:#656565;}</style></defs><g transform="translate(-0.021)"><g transform="translate(0.021 0)"><path class="a" d="M15.534,11.042,9.354,4.862V2.122C9.354,1.689,9.239,0,8.02,0S6.687,1.689,6.687,2.122v2.74L.509,11.04a1.654,1.654,0,0,0-.488,1.178V13a.333.333,0,0,0,.513.28L6.816,9.254c.062,1.009.146,1.851.249,2.875l.106,1.05L4.837,14.721a.334.334,0,0,0-.15.279v.667a.334.334,0,0,0,.405.326l2.928-.651,2.928.651a.332.332,0,0,0,.281-.065.337.337,0,0,0,.125-.261V15a.331.331,0,0,0-.15-.278L8.87,13.182l.106-1.053c.1-1.023.187-1.864.249-2.873l6.282,4.024A.333.333,0,0,0,16.02,13v-.781A1.652,1.652,0,0,0,15.534,11.042Z" transform="translate(-0.021 0)"/></g></g></svg>