<svg xmlns="http://www.w3.org/2000/svg" width="16.301" height="16.3" viewBox="0 0 16.301 16.3"><defs><style>.a{fill:#3f69b8;stroke:#3f69b8;stroke-width:0.3px;}</style></defs><g transform="translate(0.15 0.127)"><path class="a" d="M16,9.865a1.532,1.532,0,0,0-1.53-1.53H1.88V2.082A1.123,1.123,0,0,1,3,.96H4.03a.608.608,0,0,1,.454.2l.47.53a2.1,2.1,0,0,0-.043.423v.615a.468.468,0,0,0,.156.91H8.945a.468.468,0,0,0,.156-.91V2.118A2.094,2.094,0,0,0,5.4.78L5.186.543A1.546,1.546,0,0,0,4.03.023H3A2.061,2.061,0,0,0,.943,2.082V8.4a.474.474,0,0,0,0,.054,1.53,1.53,0,0,0,0,2.826v.847a3.046,3.046,0,0,0,3.043,3.043h.268v.387a.469.469,0,0,0,.938,0v-.387H10.81v.387a.469.469,0,1,0,.938,0v-.387h.268a3.046,3.046,0,0,0,3.043-3.043v-.847A1.532,1.532,0,0,0,16,9.865Zm-9-8.9A1.159,1.159,0,0,1,8.164,2.118v.588H5.849V2.118A1.159,1.159,0,0,1,7.006.96Zm5.009,13.27H3.986A2.108,2.108,0,0,1,1.88,12.125V11.4H14.121v.73a2.108,2.108,0,0,1-2.105,2.105Zm2.456-3.773H1.53a.592.592,0,1,1,0-1.185H14.471a.592.592,0,1,1,0,1.185Z"/><path class="a" d="M268.118,206.511a.469.469,0,1,0-.28.524A.474.474,0,0,0,268.118,206.511Z" transform="translate(-258.841 -199.67)"/><path class="a" d="M208.118,206.511a.469.469,0,1,0-.28.524A.474.474,0,0,0,208.118,206.511Z" transform="translate(-200.716 -199.67)"/><path class="a" d="M148.118,206.511a.469.469,0,1,0-.28.524A.474.474,0,0,0,148.118,206.511Z" transform="translate(-142.591 -199.67)"/><path class="a" d="M268.125,146.568a.469.469,0,1,0-.33.494A.473.473,0,0,0,268.125,146.568Z" transform="translate(-258.841 -141.557)"/><path class="a" d="M208.126,146.569a.469.469,0,1,0-.33.495A.473.473,0,0,0,208.126,146.569Z" transform="translate(-200.717 -141.557)"/><path class="a" d="M148.127,146.568a.469.469,0,1,0-.33.495A.473.473,0,0,0,148.127,146.568Z" transform="translate(-142.593 -141.557)"/></g></svg>