<svg xmlns="http://www.w3.org/2000/svg" width="14" height="16" viewBox="0 0 14 16">
  <g id="Group_5141" data-name="Group 5141" transform="translate(-1286 -72)">
    <g id="bell" transform="translate(1232.944 72)">
      <g id="Group_143" data-name="Group 143" transform="translate(54.071 2.229)">
        <g id="Group_142" data-name="Group 142" transform="translate(0)">
          <path id="Path_217" data-name="Path 217" d="M90.782,71.32a5.261,5.261,0,0,0-5.255,5.255v5.581h1.087V76.575a4.168,4.168,0,0,1,8.335,0v5.581h1.087V76.575A5.261,5.261,0,0,0,90.782,71.32Z" transform="translate(-85.527 -71.32)" fill="#fff"/>
        </g>
      </g>
      <g id="Group_145" data-name="Group 145" transform="translate(53.056 12.521)">
        <g id="Group_144" data-name="Group 144" transform="translate(0)">
          <path id="Path_218" data-name="Path 218" d="M65.2,400.67H53.6a.544.544,0,1,0,0,1.087H65.2a.544.544,0,1,0,0-1.087Z" transform="translate(-53.056 -400.67)" fill="#fff"/>
        </g>
      </g>
      <g id="Group_147" data-name="Group 147" transform="translate(57.658)">
        <g id="Group_146" data-name="Group 146" transform="translate(0)">
          <path id="Path_219" data-name="Path 219" d="M202,0a1.667,1.667,0,1,0,1.667,1.667A1.669,1.669,0,0,0,202,0Zm0,2.247a.58.58,0,1,1,.58-.58A.588.588,0,0,1,202,2.247Z" transform="translate(-200.336 0)" fill="#fff"/>
        </g>
      </g>
      <g id="Group_149" data-name="Group 149" transform="translate(57.369 13.065)">
        <g id="Group_148" data-name="Group 148">
          <path id="Path_220" data-name="Path 220" d="M193.956,418.066v.942a.906.906,0,1,1-1.812,0v-.942h-1.087v.942a1.993,1.993,0,1,0,3.986,0v-.942Z" transform="translate(-191.057 -418.066)" fill="#fff"/>
        </g>
      </g>
    </g>
    <circle id="Ellipse_41" data-name="Ellipse 41" cx="3" cy="3" r="3" transform="translate(1294 74)" fill="#fa0638"/>
  </g>
</svg>
