<svg xmlns="http://www.w3.org/2000/svg" width="20.293" height="16" viewBox="0 0 20.293 16"><defs><style>.a{fill:#3f69b8;}</style></defs><g transform="translate(0 -54.154)"><g transform="translate(0 54.154)"><path class="a" d="M18.537,61.959H16.2V60.788h1.366a1.758,1.758,0,0,0,1.756-1.756V55.91a1.758,1.758,0,0,0-1.756-1.756H2.732A1.758,1.758,0,0,0,.976,55.91v3.122a1.758,1.758,0,0,0,1.756,1.756H4.1v1.171H1.756A1.758,1.758,0,0,0,0,63.715v.78a1.758,1.758,0,0,0,1.756,1.756v2.537a1.367,1.367,0,0,0,1.366,1.366H3.9a1.367,1.367,0,0,0,1.366-1.366V66.252h9.756v2.537a1.367,1.367,0,0,0,1.366,1.366h.78a1.367,1.367,0,0,0,1.366-1.366V66.252A1.758,1.758,0,0,0,20.293,64.5v-.78A1.758,1.758,0,0,0,18.537,61.959Zm-15.8-2.341a.586.586,0,0,1-.585-.585V55.91a.586.586,0,0,1,.585-.585H17.561a.586.586,0,0,1,.585.585v3.122a.586.586,0,0,1-.585.585Zm12.293,1.171v1.171H5.268V60.788Zm-10.927,8a.2.2,0,0,1-.2.2H3.122a.2.2,0,0,1-.2-.2V66.252H4.1Zm13.268,0a.2.2,0,0,1-.2.2h-.78a.2.2,0,0,1-.2-.2V66.252h1.171v2.537ZM19.122,64.5a.586.586,0,0,1-.585.585H1.756a.586.586,0,0,1-.585-.585v-.78a.586.586,0,0,1,.585-.585H18.537a.586.586,0,0,1,.585.585Z" transform="translate(0 -54.154)"/></g></g></svg>