<svg xmlns="http://www.w3.org/2000/svg" width="18.285" height="16" viewBox="0 0 18.285 16">
  <g id="camera" transform="translate(0 -30.522)">
    <path id="Path_262" data-name="Path 262" d="M187.064,199.1a2.286,2.286,0,1,1-3.232,0,2.286,2.286,0,0,1,3.232,0" transform="translate(-176.306 -161.626)" fill="#47bbff"/>
    <path id="Path_263" data-name="Path 263" d="M16,32.808H14.42l-1.143-2.286H5.007L3.865,32.809l-1.577,0A2.29,2.29,0,0,0,.006,35.1L0,44.236a2.288,2.288,0,0,0,2.286,2.286H16a2.288,2.288,0,0,0,2.286-2.286V35.093A2.288,2.288,0,0,0,16,32.808ZM9.142,43.665a4.571,4.571,0,1,1,4.571-4.571,4.577,4.577,0,0,1-4.571,4.571Z" fill="#47bbff"/>
  </g>
</svg>
