<?xml version="1.0" encoding="UTF-8"?>
<svg xmlns="http://www.w3.org/2000/svg" xmlns:xlink="http://www.w3.org/1999/xlink" width="60pt" height="60pt" viewBox="0 0 60 60" version="1.1">
<g id="surface1">
<path style=" stroke:none;fill-rule:nonzero;fill:rgb(27.843137%,73.333333%,100%);fill-opacity:1;" d="M 43.261719 20.480469 C 44.175781 21.394531 44.175781 22.878906 43.261719 23.796875 L 27.539062 39.519531 C 26.621094 40.433594 25.140625 40.433594 24.222656 39.519531 L 16.738281 32.035156 C 15.824219 31.117188 15.824219 29.632812 16.738281 28.71875 C 17.652344 27.804688 19.136719 27.804688 20.054688 28.71875 L 25.878906 34.546875 L 39.945312 20.480469 C 40.863281 19.566406 42.347656 19.566406 43.261719 20.480469 Z M 60 30 C 60 46.582031 46.582031 60 30 60 C 13.417969 60 0 46.582031 0 30 C 0 13.417969 13.417969 0 30 0 C 46.582031 0 60 13.417969 60 30 Z M 55.3125 30 C 55.3125 16.007812 43.988281 4.6875 30 4.6875 C 16.007812 4.6875 4.6875 16.011719 4.6875 30 C 4.6875 43.992188 16.011719 55.3125 30 55.3125 C 43.992188 55.3125 55.3125 43.988281 55.3125 30 Z M 55.3125 30 "/>
</g>
</svg>
