<svg xmlns="http://www.w3.org/2000/svg" width="15.234" height="20" viewBox="0 0 15.234 20">
  <g id="chef_1_" data-name="chef (1)" transform="translate(-61 0)">
    <path id="Path_12947" data-name="Path 12947" d="M214.986,361l-3.725,2.483a.584.584,0,0,0-.261.488V366.9h9.375V363.93a2.933,2.933,0,0,0-2.93-2.93Zm-.642,4.1h-1.172V363.93h1.172Z" transform="translate(-144.141 -346.898)" fill="#656565"/>
    <path id="Path_12948" data-name="Path 12948" d="M65.688,363.971a1.754,1.754,0,0,1,.783-1.463L68.733,361h-4.8A2.933,2.933,0,0,0,61,363.93V366.9h4.688Z" transform="translate(0 -346.898)" fill="#656565"/>
    <path id="Path_12949" data-name="Path 12949" d="M122.172,5.117v.743h8.2V5.117a2.751,2.751,0,0,0,1.172-2.187A3.267,3.267,0,0,0,128.031,0c-1.1,0-2.344.674-2.344,1.758h-1.172a2.594,2.594,0,0,1,.651-1.687A4.191,4.191,0,0,0,124.516,0,3.267,3.267,0,0,0,121,2.93,2.751,2.751,0,0,0,122.172,5.117Z" transform="translate(-57.656)" fill="#656565"/>
    <path id="Path_12950" data-name="Path 12950" d="M159.2,180H151v1.8a4.1,4.1,0,0,0,8.2,0Z" transform="translate(-86.484 -172.969)" fill="#656565"/>
  </g>
</svg>
