<svg xmlns="http://www.w3.org/2000/svg" width="25.989" height="17.393" viewBox="0 0 25.989 17.393"><defs><style>.a{fill:#3f69b8;stroke:#3f69b8;stroke-width:0.2px;}</style></defs><g transform="translate(0.1 -85.233)"><g transform="translate(0 85.333)"><g transform="translate(0 0)"><path class="a" d="M23.1,85.333H2.686A2.69,2.69,0,0,0,0,88.019v11.82a2.69,2.69,0,0,0,2.686,2.686H23.1a2.69,2.69,0,0,0,2.686-2.686V88.019A2.69,2.69,0,0,0,23.1,85.333Zm1.612,14.506a1.614,1.614,0,0,1-1.612,1.612H2.686a1.614,1.614,0,0,1-1.612-1.612V88.019a1.614,1.614,0,0,1,1.612-1.612H23.1a1.614,1.614,0,0,1,1.612,1.612v11.82Z" transform="translate(0 -85.333)"/></g></g><g transform="translate(0 88.557)"><g transform="translate(0 0)"><path class="a" d="M25.252,149.333H.537A.538.538,0,0,0,0,149.87v3.224a.538.538,0,0,0,.537.537H25.252a.538.538,0,0,0,.537-.537V149.87A.538.538,0,0,0,25.252,149.333Zm-.537,3.224H1.075v-2.149h23.64v2.149Z" transform="translate(0 -149.333)"/></g></g><g transform="translate(3.224 96.078)"><path class="a" d="M70.985,298.667H64.537a.537.537,0,1,0,0,1.075h6.447a.537.537,0,1,0,0-1.075Z" transform="translate(-64 -298.667)"/></g><g transform="translate(3.224 98.228)"><g transform="translate(0 0)"><path class="a" d="M70.985,341.333H64.537a.537.537,0,1,0,0,1.075h6.447a.537.537,0,1,0,0-1.075Z" transform="translate(-64 -341.333)"/></g></g><g transform="translate(18.267 95.004)"><g transform="translate(0 0)"><path class="a" d="M365.353,277.333h-1.075a1.614,1.614,0,0,0-1.612,1.612v1.075a1.614,1.614,0,0,0,1.612,1.612h1.075a1.614,1.614,0,0,0,1.612-1.612v-1.075A1.614,1.614,0,0,0,365.353,277.333Zm.537,2.686a.537.537,0,0,1-.537.537h-1.075a.538.538,0,0,1-.537-.537v-1.075a.538.538,0,0,1,.537-.537h1.075a.538.538,0,0,1,.537.537Z" transform="translate(-362.667 -277.333)"/></g></g></g></svg>