<svg xmlns="http://www.w3.org/2000/svg" width="20" height="20" viewBox="0 0 20 20">
  <g id="dollar" transform="translate(0)">
    <path id="Path_13217" data-name="Path 13217" d="M17.071,2.929A10,10,0,0,0,2.929,17.071,10,10,0,0,0,17.071,2.929ZM10,9.375a2.812,2.812,0,0,1,.769,5.517.2.2,0,0,0-.144.188v.527a.637.637,0,0,1-.595.642.625.625,0,0,1-.655-.624V15.08a.2.2,0,0,0-.143-.188A2.817,2.817,0,0,1,7.188,12.2a.635.635,0,0,1,.607-.642.625.625,0,0,1,.643.625A1.563,1.563,0,1,0,10,10.625a2.812,2.812,0,0,1-.769-5.517.2.2,0,0,0,.144-.188V4.393a.637.637,0,0,1,.595-.642.625.625,0,0,1,.655.624V4.92a.2.2,0,0,0,.143.188A2.817,2.817,0,0,1,12.812,7.8a.635.635,0,0,1-.607.642.625.625,0,0,1-.643-.625A1.563,1.563,0,1,0,10,9.375Z" transform="translate(0)" fill="#656565"/>
  </g>
</svg>
