<svg xmlns="http://www.w3.org/2000/svg" width="18.183" height="14.773" viewBox="0 0 18.183 14.773"><defs><style>.a{fill:#656565;}</style></defs><path class="a" d="M18.183,49.749a7.772,7.772,0,0,1-2.148.589,3.707,3.707,0,0,0,1.64-2.06,7.45,7.45,0,0,1-2.364.9,3.727,3.727,0,0,0-6.448,2.549,3.838,3.838,0,0,0,.086.85,10.551,10.551,0,0,1-7.683-3.9,3.729,3.729,0,0,0,1.146,4.982A3.681,3.681,0,0,1,.727,53.2v.041a3.745,3.745,0,0,0,2.987,3.663,3.72,3.72,0,0,1-.977.123,3.3,3.3,0,0,1-.706-.064,3.763,3.763,0,0,0,3.483,2.6,7.49,7.49,0,0,1-4.622,1.59A6.982,6.982,0,0,1,0,61.1a10.494,10.494,0,0,0,5.718,1.673,10.536,10.536,0,0,0,10.61-10.607c0-.165-.006-.324-.014-.482A7.436,7.436,0,0,0,18.183,49.749Z" transform="translate(0 -48)"/></svg>