<svg xmlns="http://www.w3.org/2000/svg" width="19.415" height="14.03" viewBox="0 0 19.415 14.03"><defs><style>.a{fill:#656565;}</style></defs><path class="a" d="M9.7,14.53H9.7a51.458,51.458,0,0,1-7.232-.448,3,3,0,0,1-2.111-2.11A22.021,22.021,0,0,1,0,7.534,22.436,22.436,0,0,1,.355,3.062v0A3.064,3.064,0,0,1,2.465.934l.008,0A53.358,53.358,0,0,1,9.7.5H9.71a51.277,51.277,0,0,1,7.234.449,3,3,0,0,1,2.109,2.107,21.364,21.364,0,0,1,.357,4.5,22.082,22.082,0,0,1-.356,4.432v0a3,3,0,0,1-2.113,2.11h0a53.4,53.4,0,0,1-7.227.432H9.7ZM1.821,3.451a21.7,21.7,0,0,0-.3,4.073v.02a20.387,20.387,0,0,0,.305,4.035,1.479,1.479,0,0,0,1.041,1.038,50.768,50.768,0,0,0,6.842.4,52.825,52.825,0,0,0,6.845-.382,1.48,1.48,0,0,0,1.039-1.038,20.457,20.457,0,0,0,.3-4.035c0-.008,0-.016,0-.024a19.745,19.745,0,0,0-.3-4.079v0a1.48,1.48,0,0,0-1.042-1.04,50.577,50.577,0,0,0-6.842-.4A52.9,52.9,0,0,0,2.862,2.4,1.521,1.521,0,0,0,1.821,3.451Zm16.5,8.338h0Zm-10.55-1.2V4.443l5.309,3.071Zm0,0" transform="translate(0.002 -0.5)"/></svg>