<svg id="earth-grid-select-language-button" xmlns="http://www.w3.org/2000/svg" width="20" height="20" viewBox="0 0 20 20">
  <g id="language">
    <path id="Path_13219" data-name="Path 13219" d="M10,0A10,10,0,1,0,20,10,10.029,10.029,0,0,0,10,0Zm6.9,6H14a15.805,15.805,0,0,0-1.4-3.6A8.049,8.049,0,0,1,16.9,6ZM10,2a13.428,13.428,0,0,1,1.9,4H8.1A14.7,14.7,0,0,1,10,2ZM2.3,12A6.448,6.448,0,0,1,2,10a6.448,6.448,0,0,1,.3-2H5.7a13.4,13.4,0,0,0-.1,2c0,.7.1,1.3.1,2Zm.8,2H6a15.805,15.805,0,0,0,1.4,3.6A8.049,8.049,0,0,1,3.1,14ZM6,6H3.1A8.428,8.428,0,0,1,7.4,2.4,15.805,15.805,0,0,0,6,6Zm4,12a13.428,13.428,0,0,1-1.9-4h3.8A14.7,14.7,0,0,1,10,18Zm2.3-6H7.7a13.552,13.552,0,0,1-.2-2,13.552,13.552,0,0,1,.2-2h4.7a13.552,13.552,0,0,1,.2,2A13.8,13.8,0,0,1,12.3,12Zm.3,5.6A14.188,14.188,0,0,0,14,14h2.9A8.049,8.049,0,0,1,12.6,17.6ZM14.4,12a13.4,13.4,0,0,0,.1-2c0-.7-.1-1.3-.1-2h3.4a6.448,6.448,0,0,1,.3,2,6.449,6.449,0,0,1-.3,2Z" fill="#656565"/>
  </g>
</svg>
