<svg xmlns="http://www.w3.org/2000/svg" width="10.14" height="10.14" viewBox="0 0 10.14 10.14"><defs><style>.a{fill:#fbbb00;}.b{fill:#518ef8;}.c{fill:#28b446;}.d{fill:#f14336;}</style></defs><path class="a" d="M2.247,141.657l-.353,1.318L.6,143a5.079,5.079,0,0,1-.037-4.734h0l1.149.211.5,1.142a3.026,3.026,0,0,0,.028,2.037Z" transform="translate(0 -135.53)"/><path class="b" d="M266.5,208.176a5.068,5.068,0,0,1-1.807,4.9h0L263.244,213l-.2-1.278a3.022,3.022,0,0,0,1.3-1.543h-2.711v-2.006h4.87Z" transform="translate(-256.446 -204.053)"/><path class="c" d="M38.149,312.3h0a5.072,5.072,0,0,1-7.64-1.551l1.643-1.345a3.015,3.015,0,0,0,4.345,1.544Z" transform="translate(-29.905 -303.281)"/><path class="d" d="M36.363,1.167,34.721,2.512a3.015,3.015,0,0,0-4.445,1.579L28.624,2.738h0a5.071,5.071,0,0,1,7.739-1.571Z" transform="translate(-28.057)"/></svg>