<svg xmlns="http://www.w3.org/2000/svg" width="42" height="39" viewBox="0 0 42 39">
  <path id="Polygon_18" data-name="Polygon 18" d="M20.562.795a.5.5,0,0,1,.876,0L27.71,12.178a.5.5,0,0,0,.351.251l13.006,2.3a.5.5,0,0,1,.27.842l-9.122,9.313a.5.5,0,0,0-.138.419l1.775,12.781a.5.5,0,0,1-.708.521L21.213,33a.5.5,0,0,0-.426,0L8.856,38.607a.5.5,0,0,1-.708-.521L9.923,25.305a.5.5,0,0,0-.138-.419L.663,15.574a.5.5,0,0,1,.27-.842l13.006-2.3a.5.5,0,0,0,.351-.251Z" fill="#242424" opacity="0.4"/>
  <path id="Path_13006" data-name="Path 13006" d="M20.609.688,21,32.9,8.021,39,9.957,25.062,0,14.9l14.175-2.51Z" fill="#47bbff"/>
</svg>
