<svg xmlns="http://www.w3.org/2000/svg" width="12.401" height="11.218" viewBox="0 0 12.401 11.218">
  <g transform="translate(0.434 0.25)">
    <path d="M10.591,17.9a3.152,3.152,0,0,0-4.619,0l-.2.215-.2-.215a3.154,3.154,0,0,0-4.457-.164q-.085.079-.164.164a3.537,3.537,0,0,0,0,4.81l4.525,4.772a.412.412,0,0,0,.583.016l.016-.016,4.524-4.772A3.537,3.537,0,0,0,10.591,17.9Zm-.6,4.242h0L5.768,26.6,1.541,22.145a2.7,2.7,0,0,1,0-3.675,2.33,2.33,0,0,1,3.292-.132q.069.064.132.132l.5.53a.425.425,0,0,0,.6,0l.5-.53a2.33,2.33,0,0,1,3.292-.132q.069.064.132.132A2.678,2.678,0,0,1,9.994,22.145Z" transform="translate(0 -16.896)" fill="#fff" stroke="#fff" stroke-width="0.5"/>
  </g>
</svg>
