<svg xmlns="http://www.w3.org/2000/svg" width="17.561" height="20.002" viewBox="0 0 17.561 20.002">
  <g id="Group_4255" data-name="Group 4255" transform="translate(-365 -574.998)">
    <g id="Group_4254" data-name="Group 4254" transform="translate(365.976 575)">
      <path id="Subtraction_8" data-name="Subtraction 8" d="M5.294,19.511H1a1,1,0,0,1-1-1V1A1,1,0,0,1,1,0h13.61a1,1,0,0,1,1,1V18.51a1,1,0,0,1-1,1H10.32V15.629a2.513,2.513,0,1,0-5.027,0V19.51ZM12.525,8.627a.5.5,0,0,0-.5.5v.951a.5.5,0,0,0,.5.5h.951a.5.5,0,0,0,.5-.5V9.127a.5.5,0,0,0-.5-.5Zm-3.462,0a.5.5,0,0,0-.5.5v.951a.5.5,0,0,0,.5.5h.951a.5.5,0,0,0,.5-.5V9.127a.5.5,0,0,0-.5-.5Zm-3.464,0a.5.5,0,0,0-.5.5v.951a.5.5,0,0,0,.5.5H6.55a.5.5,0,0,0,.5-.5V9.127a.5.5,0,0,0-.5-.5Zm-3.462,0a.5.5,0,0,0-.5.5v.951a.5.5,0,0,0,.5.5h.951a.5.5,0,0,0,.5-.5V9.127a.5.5,0,0,0-.5-.5ZM12.524,5.156a.5.5,0,0,0-.5.5v.951a.5.5,0,0,0,.5.5h.951a.5.5,0,0,0,.5-.5V5.656a.5.5,0,0,0-.5-.5Zm-3.463,0a.5.5,0,0,0-.5.5v.951a.5.5,0,0,0,.5.5h.951a.5.5,0,0,0,.5-.5V5.656a.5.5,0,0,0-.5-.5Zm-3.463,0a.5.5,0,0,0-.5.5v.951a.5.5,0,0,0,.5.5h.951a.5.5,0,0,0,.5-.5V5.656a.5.5,0,0,0-.5-.5Zm-3.463,0a.5.5,0,0,0-.5.5v.951a.5.5,0,0,0,.5.5h.951a.5.5,0,0,0,.5-.5V5.656a.5.5,0,0,0-.5-.5Zm10.4-3.472a.5.5,0,0,0-.5.5v.951a.5.5,0,0,0,.5.5h.951a.5.5,0,0,0,.5-.5V2.184a.5.5,0,0,0-.5-.5Zm-3.463,0a.5.5,0,0,0-.5.5v.951a.5.5,0,0,0,.5.5h.951a.5.5,0,0,0,.5-.5V2.184a.5.5,0,0,0-.5-.5Zm-3.463,0a.5.5,0,0,0-.5.5v.951a.5.5,0,0,0,.5.5h.951a.5.5,0,0,0,.5-.5V2.184a.5.5,0,0,0-.5-.5Zm-3.463,0a.5.5,0,0,0-.5.5v.951a.5.5,0,0,0,.5.5H3.1a.5.5,0,0,0,.5-.5V2.184a.5.5,0,0,0-.5-.5Z" transform="translate(0 0)" fill="#656565"/>
    </g>
    <g id="Rectangle_181" data-name="Rectangle 181" transform="translate(365 593.537)" fill="none" stroke="#656565" stroke-width="1">
      <rect width="17.561" height="1.463" stroke="none"/>
      <rect x="0.5" y="0.5" width="16.561" height="0.463" fill="none"/>
    </g>
  </g>
</svg>
