<?xml version="1.0" encoding="UTF-8"?>
<svg xmlns="http://www.w3.org/2000/svg" xmlns:xlink="http://www.w3.org/1999/xlink" width="18pt" height="18pt" viewBox="0 0 18 18" version="1.1">
<g id="surface1">
<path style=" stroke:none;fill-rule:nonzero;fill:rgb(24.705882%,41.176471%,72.156863%);fill-opacity:1;" d="M 0.207031 9.496094 C 0.207031 9.496094 0.207031 9.5 0.207031 9.5 L 3.878906 13.15625 C 4.15625 13.429688 4.601562 13.425781 4.875 13.152344 C 5.148438 12.878906 5.148438 12.433594 4.871094 12.15625 L 2.40625 9.703125 L 17.296875 9.703125 C 17.683594 9.703125 18 9.386719 18 9 C 18 8.613281 17.683594 8.296875 17.296875 8.296875 L 2.40625 8.296875 L 4.871094 5.84375 C 5.148438 5.566406 5.148438 5.121094 4.875 4.847656 C 4.601562 4.574219 4.15625 4.570312 3.878906 4.84375 L 0.207031 8.5 C 0.207031 8.5 0.207031 8.503906 0.207031 8.503906 C -0.0703125 8.777344 -0.0664062 9.222656 0.207031 9.496094 Z M 0.207031 9.496094 "/>
</g>
</svg>
