<?xml version="1.0" encoding="UTF-8"?>
<svg xmlns="http://www.w3.org/2000/svg" xmlns:xlink="http://www.w3.org/1999/xlink" width="10pt" height="12pt" viewBox="0 0 10 12" version="1.1">
<g id="surface1">
<path style=" stroke:none;fill-rule:nonzero;fill:rgb(39.607843%,39.607843%,39.607843%);fill-opacity:1;" d="M 7.777344 5.53125 L 3.328125 0.191406 C 3.226562 0.0664062 3.085938 0 2.941406 0 C 2.792969 0 2.65625 0.0664062 2.554688 0.191406 L 2.226562 0.585938 C 2.011719 0.839844 2.011719 1.257812 2.226562 1.511719 L 5.964844 5.996094 L 2.222656 10.488281 C 2.121094 10.609375 2.0625 10.773438 2.0625 10.949219 C 2.0625 11.125 2.121094 11.292969 2.222656 11.414062 L 2.550781 11.808594 C 2.652344 11.933594 2.789062 12 2.9375 12 C 3.082031 12 3.222656 11.933594 3.324219 11.808594 L 7.777344 6.464844 C 7.882812 6.339844 7.9375 6.171875 7.9375 5.996094 C 7.9375 5.820312 7.882812 5.65625 7.777344 5.53125 Z M 7.777344 5.53125 "/>
</g>
</svg>
