<?xml version="1.0" encoding="UTF-8"?>
<svg xmlns="http://www.w3.org/2000/svg" xmlns:xlink="http://www.w3.org/1999/xlink" width="10pt" height="12pt" viewBox="0 0 10 12" version="1.1">
<g id="surface1">
<path style=" stroke:none;fill-rule:nonzero;fill:rgb(39.607843%,39.607843%,39.607843%);fill-opacity:1;" d="M 2.222656 6.46875 L 6.671875 11.808594 C 6.773438 11.933594 6.914062 12 7.058594 12 C 7.207031 12 7.34375 11.933594 7.445312 11.808594 L 7.773438 11.414062 C 7.988281 11.160156 7.988281 10.742188 7.773438 10.488281 L 4.035156 6.003906 L 7.777344 1.511719 C 7.878906 1.390625 7.9375 1.226562 7.9375 1.050781 C 7.9375 0.875 7.878906 0.707031 7.777344 0.585938 L 7.449219 0.191406 C 7.347656 0.0664062 7.210938 0 7.0625 0 C 6.917969 0 6.777344 0.0664062 6.675781 0.191406 L 2.222656 5.535156 C 2.117188 5.660156 2.0625 5.828125 2.0625 6.003906 C 2.0625 6.179688 2.117188 6.34375 2.222656 6.46875 Z M 2.222656 6.46875 "/>
</g>
</svg>
