<svg xmlns="http://www.w3.org/2000/svg" width="14.5" height="9.688" viewBox="0 0 14.5 9.688"><defs><style>.a{fill:#47bbff;stroke:#47bbff;stroke-width:0.5px;}</style></defs><g transform="translate(0.249 0.25)"><path class="a" d="M10.939,9.187H3.064A3.063,3.063,0,1,1,3.524,3.1a3.5,3.5,0,0,1,6.954,0,3.063,3.063,0,1,1,.461,6.091ZM3.064,3.937a2.188,2.188,0,1,0,0,4.375h7.875a2.188,2.188,0,1,0-.732-4.25.438.438,0,0,1-.583-.436c0-.039,0-.08,0-.127a2.625,2.625,0,0,0-5.25,0c0,.046,0,.088,0,.127a.438.438,0,0,1-.583.436A2.181,2.181,0,0,0,3.064,3.937Z" transform="translate(0 0)"/></g></svg>