<?xml version="1.0" encoding="UTF-8"?>
<svg xmlns="http://www.w3.org/2000/svg" xmlns:xlink="http://www.w3.org/1999/xlink" width="18pt" height="18pt" viewBox="0 0 18 18" version="1.1">
<g id="surface1">
<path style=" stroke:none;fill-rule:nonzero;fill:rgb(24.705882%,41.176471%,72.156863%);fill-opacity:1;" d="M 17.792969 8.503906 C 17.792969 8.503906 17.792969 8.5 17.792969 8.5 L 14.121094 4.84375 C 13.84375 4.570312 13.398438 4.574219 13.125 4.847656 C 12.851562 5.121094 12.851562 5.566406 13.128906 5.84375 L 15.59375 8.296875 L 0.703125 8.296875 C 0.316406 8.296875 0 8.613281 0 9 C 0 9.386719 0.316406 9.703125 0.703125 9.703125 L 15.59375 9.703125 L 13.128906 12.15625 C 12.851562 12.433594 12.851562 12.878906 13.125 13.152344 C 13.398438 13.425781 13.84375 13.429688 14.121094 13.15625 L 17.792969 9.5 C 17.792969 9.5 17.792969 9.496094 17.792969 9.496094 C 18.070312 9.222656 18.066406 8.777344 17.792969 8.503906 Z M 17.792969 8.503906 "/>
</g>
</svg>
