<svg xmlns="http://www.w3.org/2000/svg" width="23" height="20" viewBox="0 0 23 20"><defs><style>.a{fill:#fff;}</style></defs><g transform="translate(0 -30.99)"><path class="a" d="M-14085.58-506.693h-18.751a.668.668,0,0,1-.669-.665v-12a.67.67,0,0,1,.669-.669h18.751a.67.67,0,0,1,.669.669v12A.668.668,0,0,1-14085.58-506.693Zm-16.036-2.138h0v.821h12.446v-.821Zm2.155-4.11h0l-1.354.782,2.028,1.381,1.7.078,8.9-4.9a1.107,1.107,0,0,0,.541-.678,1.114,1.114,0,0,0-.108-.865,1.13,1.13,0,0,0-.975-.562,1.119,1.119,0,0,0-.58.162l-2.948,1.784-3.239-2.128-1.968,1.122,2.5,2.644-3.034,1.837Zm9.172-8.418a.666.666,0,0,1-.665-.666.667.667,0,0,1,.665-.669,1.332,1.332,0,0,0,1.331-1.331,1.334,1.334,0,0,0-1.331-1.335,1.3,1.3,0,0,0-.962.414l-3.222,3.377a.7.7,0,0,1-.5.209.627.627,0,0,1-.468-.209l-3.218-3.377a1.32,1.32,0,0,0-.966-.414,1.334,1.334,0,0,0-1.331,1.335,1.332,1.332,0,0,0,1.331,1.331.667.667,0,0,1,.665.669.666.666,0,0,1-.665.666,2.669,2.669,0,0,1-2.666-2.666,2.671,2.671,0,0,1,2.666-2.669,2.694,2.694,0,0,1,1.933.828l.68.714,1.493,1.568.285.3.271.285h.012l.309-.325.271-.285,2.151-2.258a2.675,2.675,0,0,1,1.929-.828,2.671,2.671,0,0,1,2.666,2.669A2.669,2.669,0,0,1-14090.289-521.358Z" transform="translate(14106.333 557.683)"/><rect class="a" width="23" height="2" rx="0.3" transform="translate(0 34.308)"/></g></svg>