<?xml version="1.0" encoding="UTF-8"?>
<svg xmlns="http://www.w3.org/2000/svg" xmlns:xlink="http://www.w3.org/1999/xlink" width="24pt" height="24pt" viewBox="0 0 24 24" version="1.1">
<g id="surface1">
<path style=" stroke:none;fill-rule:nonzero;fill:rgb(39.607843%,39.607843%,39.607843%);fill-opacity:1;" d="M 12 0 C 18.628906 0 24 5.371094 24 12 C 24 18.628906 18.628906 24 12 24 C 5.371094 24 0 18.628906 0 12 C 0 5.371094 5.371094 0 12 0 Z M 12 0 "/>
<path style="fill-rule:nonzero;fill:rgb(100%,100%,100%);fill-opacity:1;stroke-width:0.2;stroke-linecap:butt;stroke-linejoin:miter;stroke:rgb(100%,100%,100%);stroke-opacity:1;stroke-miterlimit:4;" d="M 128.419062 8.883656 C 128.387812 8.883656 128.356562 8.87975 128.329219 8.871938 C 128.137812 8.832875 128.005 8.664906 128.005 8.4735 L 128.005 7.641469 C 128.008906 4.649281 130.430781 2.227406 133.422969 2.2235 L 133.559687 2.2235 L 133.559687 0.418813 C 133.559687 0.246938 133.665156 0.0945938 133.821406 0.0320938 C 133.981562 -0.0343125 134.16125 0.00475 134.278437 0.12975 L 137.891719 3.87975 C 138.044062 4.039906 138.044062 4.297719 137.891719 4.457875 L 134.278437 8.207875 C 134.16125 8.328969 133.981562 8.368031 133.821406 8.305531 C 133.665156 8.243031 133.559687 8.090688 133.559687 7.918813 L 133.559687 6.114125 L 132.899531 6.114125 C 131.16125 6.106313 129.571406 7.090688 128.801875 8.645375 C 128.727656 8.789906 128.583125 8.883656 128.419062 8.883656 Z M 133.419062 3.055531 C 131.110469 3.059438 129.16125 4.778188 128.872187 7.06725 C 129.895625 5.926625 131.364375 5.274281 132.899531 5.278188 L 133.977656 5.278188 C 134.208125 5.278188 134.395625 5.465688 134.395625 5.696156 L 134.395625 6.883656 L 137.012812 4.168813 L 134.395625 1.450063 L 134.395625 2.641469 C 134.395625 2.871938 134.208125 3.055531 133.977656 3.055531 Z M 133.419062 3.055531 " transform="matrix(1,0,0,1,-121.005,7.089)"/>
</g>
</svg>
