<svg xmlns="http://www.w3.org/2000/svg" width="10.23" height="9.091" viewBox="0 0 10.23 9.091">
  <g id="share" transform="translate(-127.903 0.107)">
    <path id="Path_14" data-name="Path 14" d="M128.42,8.884a.367.367,0,0,1-.092-.011.411.411,0,0,1-.324-.4V7.641a5.424,5.424,0,0,1,5.418-5.418h.139V.417a.417.417,0,0,1,.717-.289l3.612,3.751a.416.416,0,0,1,0,.578l-3.612,3.751a.417.417,0,0,1-.717-.289V6.113h-.66a4.558,4.558,0,0,0-4.1,2.534.429.429,0,0,1-.38.237Zm5-5.827a4.592,4.592,0,0,0-4.549,4.012A5.388,5.388,0,0,1,132.9,5.279h1.077a.417.417,0,0,1,.417.417V6.885l2.617-2.717-2.617-2.717V2.64a.417.417,0,0,1-.417.417Zm0,0" transform="translate(0 0)" fill="#fff" stroke="#fff" stroke-width="0.2"/>
  </g>
</svg>
