<svg xmlns="http://www.w3.org/2000/svg" width="18.821" height="16.3" viewBox="0 0 18.821 16.3"><defs><style>.a{fill:#3f69b8;stroke:#3f69b8;stroke-width:0.3px;}</style></defs><g transform="translate(0.15 -34.693)"><g transform="translate(0 34.843)"><path class="a" d="M16.415,41.892v-5.15a1.9,1.9,0,0,0-1.9-1.9H4.005a1.9,1.9,0,0,0-1.9,1.9v5.15A2.753,2.753,0,0,0,0,44.564v3.841a.552.552,0,0,0,.552.552H2.106v1.334a.552.552,0,0,0,1.1,0V48.957h12.1v1.334a.552.552,0,0,0,1.1,0V48.957h1.554a.552.552,0,0,0,.552-.552V44.564A2.753,2.753,0,0,0,16.415,41.892Zm-13.2-5.15a.8.8,0,0,1,.8-.8h10.51a.8.8,0,0,1,.8.8v5.073H13.488v-.87a2.619,2.619,0,0,0-2.616-2.616H7.649a2.619,2.619,0,0,0-2.616,2.616v.87H3.21Zm9.175,4.2v.87H6.137v-.87a1.514,1.514,0,0,1,1.512-1.512h3.224A1.514,1.514,0,0,1,12.384,40.945ZM1.1,47.853V44.564a1.647,1.647,0,0,1,1.645-1.645H15.772a1.647,1.647,0,0,1,1.645,1.645v3.289Z" transform="translate(0 -34.843)"/></g></g></svg>