<svg xmlns="http://www.w3.org/2000/svg" width="73.075" height="90" viewBox="0 0 73.075 90">
  <g id="Group_4237" data-name="Group 4237" transform="translate(-8613 -2536)">
    <path id="Path_12938" data-name="Path 12938" d="M73.095,62.3a5.9,5.9,0,0,1,0,11.8H16.1a5.9,5.9,0,1,1,0-11.8Zm0,0" transform="translate(8604.95 2486.831)" fill="#ffe9f0"/>
    <path id="Path_12939" data-name="Path 12939" d="M95.541,118.386v53.7c0,5.288-3.775,9.063-8.431,9.063H47.232c-4.656,0-8.431-3.775-8.431-9.063V118.3h56.74Zm0,0" transform="translate(8582.377 2442.634)" fill="#ffc7d8"/>
    <g id="Group_4234" data-name="Group 4234" transform="translate(8613 2536)">
      <path id="Path_12940" data-name="Path 12940" d="M224.51,154.7a2.108,2.108,0,0,0-2.108,2.108v39.836a2.108,2.108,0,1,0,4.215,0V156.811A2.108,2.108,0,0,0,224.51,154.7Zm0,0" transform="translate(-175.526 -122.096)" fill="#ff0f59"/>
      <path id="Path_12941" data-name="Path 12941" d="M106.51,154.7a2.108,2.108,0,0,0-2.108,2.108v39.836a2.108,2.108,0,1,0,4.215,0V156.811A2.108,2.108,0,0,0,106.51,154.7Zm0,0" transform="translate(-82.397 -122.096)" fill="#ff0f59"/>
      <path id="Path_12942" data-name="Path 12942" d="M5.986,26.793v51.93a11.626,11.626,0,0,0,3.092,8.02A10.377,10.377,0,0,0,16.609,90H56.487a10.377,10.377,0,0,0,7.531-3.256,11.627,11.627,0,0,0,3.092-8.02V26.8a8.47,8.47,0,0,0,3.642-2.1,8.07,8.07,0,0,0-5.707-13.735H54.253V8.325A8.281,8.281,0,0,0,45.906,0H27.189a8.279,8.279,0,0,0-8.346,8.326v2.635H8.051A8.051,8.051,0,0,0,5.986,26.793Zm50.5,58.991H16.609c-3.6,0-6.407-3.1-6.407-7.061V26.978H62.895V78.722c0,3.965-2.8,7.061-6.408,7.061ZM23.059,8.325a4.059,4.059,0,0,1,4.131-4.11H45.906a4.061,4.061,0,0,1,4.131,4.11v2.635H23.059ZM5.367,16.319a3.807,3.807,0,0,1,2.684-1.144H65.044A3.826,3.826,0,0,1,68.838,19a3.765,3.765,0,0,1-3.794,3.762H8.051a3.785,3.785,0,0,1-3.794-3.777,3.738,3.738,0,0,1,1.11-2.666Zm0,0" transform="translate(0 0.001)" fill="#ff0f59"/>
      <path id="Path_12943" data-name="Path 12943" d="M165.51,154.7a2.108,2.108,0,0,0-2.108,2.108v39.836a2.108,2.108,0,1,0,4.215,0V156.811A2.108,2.108,0,0,0,165.51,154.7Zm0,0" transform="translate(-128.961 -122.096)" fill="#ff0f59"/>
    </g>
  </g>
</svg>
