<svg height="512pt" viewBox="0 -90 512 512" width="512pt" xmlns="http://www.w3.org/2000/svg"><path d="m135.050781 116.613281c-39.214843 0-71.117187 31.902344-71.117187 71.117188 0 39.214843 31.902344 71.117187 71.117187 71.117187 39.214844 0 71.117188-31.902344 71.117188-71.117187 0-39.214844-31.902344-71.117188-71.117188-71.117188zm0 112.335938c-22.726562 0-41.214843-18.492188-41.214843-41.21875 0-22.726563 18.488281-41.21875 41.214843-41.21875 22.726563 0 41.21875 18.492187 41.21875 41.21875 0 22.726562-18.492187 41.21875-41.21875 41.21875zm0 0"/><path d="m375.253906 116.613281c-39.214844 0-71.121094 31.902344-71.121094 71.117188 0 39.214843 31.90625 71.117187 71.121094 71.117187 39.210938 0 71.117188-31.902344 71.117188-71.117187 0-39.214844-31.902344-71.117188-71.117188-71.117188zm0 112.335938c-22.730468 0-41.21875-18.492188-41.21875-41.21875 0-22.726563 18.488282-41.21875 41.21875-41.21875 22.726563 0 41.214844 18.492187 41.214844 41.21875 0 22.726562-18.488281 41.21875-41.214844 41.21875zm0 0"/><path d="m512 52.679688h-114.492188c-34.0625-33.085938-86.695312-52.679688-142.355468-52.679688-53.390625 0-107.238282 20.0625-142.292969 52.679688h-111.914063l30.496094 48.527343c-19.613281 23.449219-31.441406 53.628907-31.441406 86.523438 0 74.46875 60.585938 135.050781 135.050781 135.050781 38.496094 0 73.277344-16.191406 97.898438-42.117188l22.203125 51.238282 22.199218-51.238282c24.625 25.929688 59.40625 42.117188 97.902344 42.117188 74.464844 0 135.050782-60.582031 135.050782-135.050781 0-32.046875-11.230469-61.515625-29.949219-84.699219zm-160.734375 2.132812c-41.917969 7.546875-77.179687 34.503906-96.113281 71.199219-18.804688-36.441407-53.710938-63.273438-95.246094-71.03125 27.382812-15.871094 61.324219-25.082031 95.246094-25.082031 35.519531 0 69.351562 9.003906 96.113281 24.914062zm-216.214844 238.070312c-57.980469 0-105.148437-47.171874-105.148437-105.152343s47.167968-105.148438 105.148437-105.148438 105.148438 47.167969 105.148438 105.148438-47.167969 105.152343-105.148438 105.152343zm240.203125 0c-57.980468 0-105.152344-47.171874-105.152344-105.152343s47.171876-105.148438 105.152344-105.148438c57.976563 0 105.148438 47.167969 105.148438 105.148438s-47.167969 105.152343-105.148438 105.152343zm0 0"/><path d="m135.050781 172.054688c-8.644531 0-15.675781 7.03125-15.675781 15.675781 0 8.640625 7.03125 15.671875 15.675781 15.671875s15.675781-7.03125 15.675781-15.671875c0-8.644531-7.03125-15.675781-15.675781-15.675781zm0 0"/><path d="m375.960938 172.054688c-8.644532 0-15.675782 7.03125-15.675782 15.675781 0 8.640625 7.03125 15.671875 15.675782 15.671875 8.644531 0 15.675781-7.03125 15.675781-15.671875 0-8.644531-7.03125-15.675781-15.675781-15.675781zm0 0"/></svg>