<svg xmlns="http://www.w3.org/2000/svg" width="18.253" height="16.056" viewBox="0 0 18.253 16.056"><defs><style>.a{fill:#3f69b8;}</style></defs><g transform="translate(0 -30.813)"><g transform="translate(7.535 43.661)"><g transform="translate(0 0)"><path class="a" d="M212.96,391.187a1.6,1.6,0,1,0,1.6,1.6A1.606,1.606,0,0,0,212.96,391.187Z" transform="translate(-211.356 -391.187)"/></g></g><g transform="translate(0 30.813)"><g transform="translate(0 0)"><path class="a" d="M17.831,33.587a15.029,15.029,0,0,0-17.4,0L0,33.9l1.28,1.76a12.682,12.682,0,0,1,8.144-2.688,12.835,12.835,0,0,1,7.56,2.687l1.27-1.759Z" transform="translate(0 -30.813)"/></g></g><g transform="translate(2.517 35.095)"><g transform="translate(0 0)"><path class="a" d="M83.389,152.875a10.767,10.767,0,0,0-12.366,0l-.432.315,1.282,1.763a8.528,8.528,0,0,1,5.3-1.878h.04a8.481,8.481,0,0,1,5.326,1.875l1.28-1.76Z" transform="translate(-70.591 -150.923)"/></g></g><g transform="translate(5.033 39.377)"><g transform="translate(0 0)"><path class="a" d="M148.946,272.163a6.511,6.511,0,0,0-7.332,0l-.432.315,1.279,1.76a4.257,4.257,0,0,1,5.63.01l1.286-1.769Z" transform="translate(-141.182 -271.033)"/></g></g></g></svg>