<svg xmlns="http://www.w3.org/2000/svg" width="16.072" height="16" viewBox="0 0 16.072 16"><defs><style>.a{opacity:0.7;}.b{fill:#242424;}</style></defs><g class="a" transform="translate(0 -1.104)"><path class="b" d="M6.809,303.226q-.094.008-.187.008a2.213,2.213,0,0,1-.5-.062l-3.767,3.767a.473.473,0,0,0,0,.669l.975.975a.473.473,0,0,0,.669,0l4.528-4.527-.839-.905Z" transform="translate(-2.149 -291.618)"/><path class="b" d="M256.011,4.213a.452.452,0,0,0-.64,0L252.93,6.654a.591.591,0,0,1-.836-.835l2.429-2.429a.471.471,0,1,0-.666-.666l-2.428,2.429a.591.591,0,0,1-.836-.835l2.441-2.441a.453.453,0,0,0-.641-.641l-2.746,2.746a2.538,2.538,0,0,0-.655,2.432l1.841,1.841a2.539,2.539,0,0,0,2.431-.656l2.747-2.746A.453.453,0,0,0,256.011,4.213Z" transform="translate(-240.071)"/><path class="b" d="M1.357,9.1a.549.549,0,0,0-.387-.16.558.558,0,0,0-.091.008.547.547,0,0,0-.4.3A4.735,4.735,0,0,0,1.4,14.673L3.966,17.23a1.347,1.347,0,0,0,.951.392c.038,0,.076,0,.114,0l1.491-.127,6.5,6.985a.549.549,0,0,0,.391.175h.01a.552.552,0,0,0,.389-.16l1.114-1.109a.544.544,0,0,0,0-.771Z" transform="translate(0 -7.598)"/></g></svg>